<svg id="Group_2" data-name="Group 2" xmlns="http://www.w3.org/2000/svg" width="336" height="336.008" viewBox="0 0 336 336.008">
  <path id="Path_1" data-name="Path 1" d="M157.223,352.578q-3.5.653-3.064,3.28t3.937,1.749q3.5-.873,3.062-3.062Q160.724,352.141,157.223,352.578Z" transform="translate(-36.033 -82.421)" fill="#b2b2b2"/>
  <path id="Path_2" data-name="Path 2" d="M140.83,354.867q-3.5,0-3.5,2.4,0,2.843,3.718,2.4,3.5,0,3.5-2.4Q144.55,354.432,140.83,354.867Z" transform="translate(-32.11 -82.959)" fill="#b2b2b2"/>
  <path id="Path_3" data-name="Path 3" d="M119.578,353.484q-.873,2.408,2.843,3.282,3.281,1.307,4.156-1.313.657-2.4-2.843-3.5C121.546,351.371,120.161,351.875,119.578,353.484Z" transform="translate(-27.92 -82.236)" fill="#b2b2b2"/>
  <path id="Path_4" data-name="Path 4" d="M317.516,18.483Q299.031,0,273,0H63Q36.971,0,18.483,18.483T0,63V273q0,26.031,18.483,44.514T63,336h49a59.161,59.161,0,0,0,7.217-.325,8.468,8.468,0,0,0,4.811-2.848q2.409-2.513,2.406-7.326,0-.653-.11-14.877t-.11-22.534l-5.032.876a64.388,64.388,0,0,1-12.141.765,93.421,93.421,0,0,1-15.2-1.531,34.082,34.082,0,0,1-14.657-6.56,27.765,27.765,0,0,1-9.623-13.453l-2.188-5.035A54.646,54.646,0,0,0,60.481,252q-4.7-6.128-9.515-8.315l-1.532-1.094a16.086,16.086,0,0,1-2.843-2.627,12.155,12.155,0,0,1-1.968-3.062q-.656-1.534,1.093-2.52t6.344-.98l4.373.655q4.376.873,10.829,5.249a35.3,35.3,0,0,1,10.609,11.373A38.55,38.55,0,0,0,90.012,264.35a25.738,25.738,0,0,0,14.327,4.707,62.147,62.147,0,0,0,12.469-1.091,43.549,43.549,0,0,0,9.843-3.285q1.969-14.655,10.717-22.534a149.8,149.8,0,0,1-22.422-3.938,89.361,89.361,0,0,1-20.561-8.532A58.872,58.872,0,0,1,76.774,215.02q-7-8.755-11.483-22.969t-4.484-32.815q0-26.467,17.283-45.063Q70,94.269,79.621,69.551q6.344-1.97,18.813,2.954T116.7,80.926q5.8,3.5,9.3,5.907a157.938,157.938,0,0,1,84,0l8.312-5.25a117.68,117.68,0,0,1,20.127-9.625q11.594-4.374,17.72-2.406Q266,94.273,257.9,114.176q17.281,18.594,17.284,45.063,0,18.6-4.484,32.922t-11.592,22.971A61.171,61.171,0,0,1,241.4,229.68a89.24,89.24,0,0,1-20.564,8.529,149.683,149.683,0,0,1-22.421,3.944q11.368,9.84,11.369,31.06V325.5a14.079,14.079,0,0,0,1.091,6.015,6.043,6.043,0,0,0,3.5,3.173,19.382,19.382,0,0,0,4.268,1.091A49.107,49.107,0,0,0,224,336h49q26.029,0,44.512-18.485T336,272.993V63Q336,36.97,317.516,18.483Z" fill="#b2b2b2"/>
  <path id="Path_5" data-name="Path 5" d="M86.589,319.034q-1.53,1.09.438,3.5,2.191,2.186,3.5.655,1.53-1.09-.441-3.5Q87.9,317.721,86.589,319.034Z" transform="translate(-20.089 -74.471)" fill="#b2b2b2"/>
  <path id="Path_6" data-name="Path 6" d="M77.328,311.847q-.655,1.534,1.532,2.625a1.867,1.867,0,0,0,2.843-.435q.655-1.534-1.532-2.63Q77.984,310.749,77.328,311.847Z" transform="translate(-18.045 -72.753)" fill="#b2b2b2"/>
  <path id="Path_7" data-name="Path 7" d="M95.345,330.167q-1.971,1.09,0,3.936t3.718,1.531q1.97-1.533,0-4.158C97.9,329.585,96.658,329.142,95.345,330.167Z" transform="translate(-22.063 -77.071)" fill="#b2b2b2"/>
  <path id="Path_8" data-name="Path 8" d="M105.395,342.917c-1.313,1.169-1.024,2.549.875,4.159q2.622,2.619,4.373.651,1.752-1.746-.875-4.153Q107.147,340.953,105.395,342.917Z" transform="translate(-24.454 -79.982)" fill="#b2b2b2"/>
</svg>
